<mxfile host="app.diagrams.net" agent="Mozilla/5.0 (Windows NT 10.0; Win64; x64) AppleWebKit/537.36 (KHTML, like Gecko) Chrome/129.0.0.0 Safari/537.36" version="24.8.0">
  <diagram name="Halaman-1" id="RoJRR_SMUow3xnbWYSuO">
    <mxGraphModel dx="2591" dy="916" grid="1" gridSize="10" guides="1" tooltips="1" connect="1" arrows="1" fold="1" page="1" pageScale="1" pageWidth="827" pageHeight="1169" math="0" shadow="0">
      <root>
        <mxCell id="0" />
        <mxCell id="1" parent="0" />
        <mxCell id="xrUntGH29ntztsyQA9HY-8" value="Use Case Pendaftaran Pasien Pada Klinik AzhykaRizkiR" style="rounded=1;whiteSpace=wrap;html=1;horizontal=1;verticalAlign=top;fontStyle=1;fontSize=17;" vertex="1" parent="1">
          <mxGeometry x="-450" y="210" width="869" height="660" as="geometry" />
        </mxCell>
        <mxCell id="xrUntGH29ntztsyQA9HY-10" value="Pasien" style="shape=umlActor;verticalLabelPosition=bottom;verticalAlign=top;html=1;outlineConnect=0;" vertex="1" parent="1">
          <mxGeometry x="-560" y="490" width="30" height="60" as="geometry" />
        </mxCell>
        <mxCell id="xrUntGH29ntztsyQA9HY-12" value="Pendaftaran Berobat" style="ellipse;whiteSpace=wrap;html=1;" vertex="1" parent="1">
          <mxGeometry x="-390" y="505" width="140" height="70" as="geometry" />
        </mxCell>
        <mxCell id="xrUntGH29ntztsyQA9HY-13" value="Registrasi Pasien" style="ellipse;whiteSpace=wrap;html=1;" vertex="1" parent="1">
          <mxGeometry x="110" y="320" width="140" height="70" as="geometry" />
        </mxCell>
        <mxCell id="xrUntGH29ntztsyQA9HY-14" value="Login" style="ellipse;whiteSpace=wrap;html=1;" vertex="1" parent="1">
          <mxGeometry x="130" y="440" width="140" height="70" as="geometry" />
        </mxCell>
        <mxCell id="xrUntGH29ntztsyQA9HY-15" value="Kelola Data Pasien" style="ellipse;whiteSpace=wrap;html=1;" vertex="1" parent="1">
          <mxGeometry x="160" y="560" width="140" height="70" as="geometry" />
        </mxCell>
        <mxCell id="xrUntGH29ntztsyQA9HY-16" value="Kelola Data Poli" style="ellipse;whiteSpace=wrap;html=1;" vertex="1" parent="1">
          <mxGeometry x="150" y="670" width="140" height="70" as="geometry" />
        </mxCell>
        <mxCell id="xrUntGH29ntztsyQA9HY-17" value="Kelola Data Dokter" style="ellipse;whiteSpace=wrap;html=1;" vertex="1" parent="1">
          <mxGeometry x="170" y="790" width="140" height="70" as="geometry" />
        </mxCell>
        <mxCell id="xrUntGH29ntztsyQA9HY-18" value="Petugas Pembayaran" style="shape=umlActor;verticalLabelPosition=bottom;verticalAlign=top;html=1;" vertex="1" parent="1">
          <mxGeometry x="490" y="500" width="30" height="60" as="geometry" />
        </mxCell>
        <mxCell id="xrUntGH29ntztsyQA9HY-22" value="" style="endArrow=none;html=1;rounded=0;" edge="1" parent="1" source="xrUntGH29ntztsyQA9HY-10" target="xrUntGH29ntztsyQA9HY-12">
          <mxGeometry width="50" height="50" relative="1" as="geometry">
            <mxPoint x="-120" y="520" as="sourcePoint" />
            <mxPoint x="-70" y="470" as="targetPoint" />
          </mxGeometry>
        </mxCell>
        <mxCell id="xrUntGH29ntztsyQA9HY-26" value="" style="endArrow=none;html=1;rounded=0;" edge="1" parent="1" source="xrUntGH29ntztsyQA9HY-13" target="xrUntGH29ntztsyQA9HY-18">
          <mxGeometry width="50" height="50" relative="1" as="geometry">
            <mxPoint x="-50" y="550" as="sourcePoint" />
            <mxPoint y="500" as="targetPoint" />
          </mxGeometry>
        </mxCell>
        <mxCell id="xrUntGH29ntztsyQA9HY-27" value="" style="endArrow=none;html=1;rounded=0;entryX=0.677;entryY=0.967;entryDx=0;entryDy=0;entryPerimeter=0;" edge="1" parent="1" source="xrUntGH29ntztsyQA9HY-18" target="xrUntGH29ntztsyQA9HY-14">
          <mxGeometry width="50" height="50" relative="1" as="geometry">
            <mxPoint x="150" y="550" as="sourcePoint" />
            <mxPoint x="200" y="500" as="targetPoint" />
          </mxGeometry>
        </mxCell>
        <mxCell id="xrUntGH29ntztsyQA9HY-28" value="" style="endArrow=none;html=1;rounded=0;" edge="1" parent="1" source="xrUntGH29ntztsyQA9HY-16" target="xrUntGH29ntztsyQA9HY-18">
          <mxGeometry width="50" height="50" relative="1" as="geometry">
            <mxPoint x="250" y="550" as="sourcePoint" />
            <mxPoint x="300" y="500" as="targetPoint" />
          </mxGeometry>
        </mxCell>
        <mxCell id="xrUntGH29ntztsyQA9HY-29" value="" style="endArrow=none;html=1;rounded=0;" edge="1" parent="1" source="xrUntGH29ntztsyQA9HY-15" target="xrUntGH29ntztsyQA9HY-18">
          <mxGeometry width="50" height="50" relative="1" as="geometry">
            <mxPoint x="250" y="550" as="sourcePoint" />
            <mxPoint x="300" y="500" as="targetPoint" />
          </mxGeometry>
        </mxCell>
        <mxCell id="xrUntGH29ntztsyQA9HY-30" value="" style="endArrow=none;html=1;rounded=0;" edge="1" parent="1" source="xrUntGH29ntztsyQA9HY-17" target="xrUntGH29ntztsyQA9HY-18">
          <mxGeometry width="50" height="50" relative="1" as="geometry">
            <mxPoint x="250" y="680" as="sourcePoint" />
            <mxPoint x="300" y="630" as="targetPoint" />
          </mxGeometry>
        </mxCell>
      </root>
    </mxGraphModel>
  </diagram>
</mxfile>
